<svg width="11" height="11" viewBox="0 0 11 11" fill="none" xmlns="http://www.w3.org/2000/svg">
<g clip-path="url(#clip0_80_1687)">
<path d="M10.0833 2.29183H0.916585C0.795028 2.29183 0.678449 2.34012 0.592495 2.42607C0.50654 2.51203 0.458252 2.6286 0.458252 2.75016V4.5835C0.459049 4.86718 0.547571 5.14367 0.711682 5.37507C0.875793 5.60646 1.10746 5.78144 1.37492 5.876V10.0835C1.37492 10.2051 1.42321 10.3216 1.50916 10.4076C1.59512 10.4935 1.71169 10.5418 1.83325 10.5418H9.16658C9.28814 10.5418 9.40472 10.4935 9.49067 10.4076C9.57663 10.3216 9.62492 10.2051 9.62492 10.0835V5.876C9.89238 5.78144 10.124 5.60646 10.2882 5.37507C10.4523 5.14367 10.5408 4.86718 10.5416 4.5835V2.75016C10.5416 2.6286 10.4933 2.51203 10.4073 2.42607C10.3214 2.34012 10.2048 2.29183 10.0833 2.29183ZM6.87492 3.2085H7.79158V4.5835C7.79158 4.70505 7.7433 4.82163 7.65734 4.90759C7.57139 4.99354 7.45481 5.04183 7.33325 5.04183C7.21169 5.04183 7.09511 4.99354 7.00916 4.90759C6.92321 4.82163 6.87492 4.70505 6.87492 4.5835V3.2085ZM5.04158 3.2085H5.95825V4.5835C5.95825 4.70505 5.90996 4.82163 5.82401 4.90759C5.73805 4.99354 5.62148 5.04183 5.49992 5.04183C5.37836 5.04183 5.26178 4.99354 5.17583 4.90759C5.08987 4.82163 5.04158 4.70505 5.04158 4.5835V3.2085ZM3.20825 3.2085H4.12492V4.5835C4.12492 4.70505 4.07663 4.82163 3.99068 4.90759C3.90472 4.99354 3.78814 5.04183 3.66658 5.04183C3.54503 5.04183 3.42845 4.99354 3.34249 4.90759C3.25654 4.82163 3.20825 4.70505 3.20825 4.5835V3.2085ZM1.83325 5.04183C1.71169 5.04183 1.59512 4.99354 1.50916 4.90759C1.42321 4.82163 1.37492 4.70505 1.37492 4.5835V3.2085H2.29159V4.5835C2.29159 4.70505 2.2433 4.82163 2.15734 4.90759C2.07139 4.99354 1.95481 5.04183 1.83325 5.04183ZM6.41658 9.62516H4.58325V8.7085C4.58325 8.46538 4.67983 8.23222 4.85174 8.06031C5.02365 7.88841 5.2568 7.79183 5.49992 7.79183C5.74303 7.79183 5.97619 7.88841 6.1481 8.06031C6.32001 8.23222 6.41658 8.46538 6.41658 8.7085V9.62516ZM8.70825 9.62516H7.33325V8.7085C7.33325 8.22226 7.1401 7.75595 6.79628 7.41213C6.45246 7.06832 5.98615 6.87516 5.49992 6.87516C5.01369 6.87516 4.54737 7.06832 4.20356 7.41213C3.85974 7.75595 3.66658 8.22226 3.66658 8.7085V9.62516H2.29159V5.876C2.45992 5.81318 2.61527 5.71996 2.74992 5.601C3.00201 5.82648 3.32837 5.95113 3.66658 5.95113C4.0048 5.95113 4.33116 5.82648 4.58325 5.601C4.83535 5.82648 5.1617 5.95113 5.49992 5.95113C5.83814 5.95113 6.16449 5.82648 6.41658 5.601C6.66868 5.82648 6.99503 5.95113 7.33325 5.95113C7.67147 5.95113 7.99782 5.82648 8.24992 5.601C8.38456 5.71996 8.53992 5.81318 8.70825 5.876V9.62516ZM9.62492 4.5835C9.62492 4.70505 9.57663 4.82163 9.49067 4.90759C9.40472 4.99354 9.28814 5.04183 9.16658 5.04183C9.04503 5.04183 8.92845 4.99354 8.84249 4.90759C8.75654 4.82163 8.70825 4.70505 8.70825 4.5835V3.2085H9.62492V4.5835ZM1.97075 1.37516H9.16658C9.28814 1.37516 9.40472 1.32687 9.49067 1.24092C9.57663 1.15497 9.62492 1.03839 9.62492 0.916829C9.62492 0.795272 9.57663 0.678693 9.49067 0.592739C9.40472 0.506785 9.28814 0.458496 9.16658 0.458496H1.97075C1.84919 0.458496 1.73262 0.506785 1.64666 0.592739C1.56071 0.678693 1.51242 0.795272 1.51242 0.916829C1.51242 1.03839 1.56071 1.15497 1.64666 1.24092C1.73262 1.32687 1.84919 1.37516 1.97075 1.37516Z" fill="#FC9824"/>
</g>
<defs>
<clipPath id="clip0_80_1687">
<rect width="11" height="11" fill="white"/>
</clipPath>
</defs>
</svg>
